Coordinates
version=1
nRows=9
nColumns=63
inDegrees=yes

Units are S.I. units (second, meters, Newtons, ...)
If the header above contains a line with 'inDegrees', this indicates whether rotational values are in degrees (yes) or radians (no).

endheader
time	pelvis_tilt	pelvis_list	pelvis_rotation	pelvis_tx	pelvis_ty	pelvis_tz	hip_flexion_r	hip_adduction_r	hip_rotation_r	knee_angle_r	knee_angle_r_beta	ankle_angle_r	subtalar_angle_r	mtp_angle_r	hip_flexion_l	hip_adduction_l	hip_rotation_l	knee_angle_l	knee_angle_l_beta	ankle_angle_l	subtalar_angle_l	mtp_angle_l	L5_S1_Flex_Ext	L5_S1_Lat_Bending	L5_S1_axial_rotation	L4_L5_Flex_Ext	L4_L5_Lat_Bending	L4_L5_axial_rotation	L3_L4_Flex_Ext	L3_L4_Lat_Bending	L3_L4_axial_rotation	L2_L3_Flex_Ext	L2_L3_Lat_Bending	L2_L3_axial_rotation	L1_L2_Flex_Ext	L1_L2_Lat_Bending	L1_L2_axial_rotation	L1_T12_Flex_Ext	L1_T12_Lat_Bending	L1_T12_axial_rotation	Abs_r3	Abs_r2	Abs_r1	Abs_t1	Abs_t2	neck_flexion	neck_bending	neck_rotation	arm_flex_r	arm_add_r	arm_rot_r	elbow_flex_r	pro_sup_r	wrist_flex_r	wrist_dev_r	arm_flex_l	arm_add_l	arm_rot_l	elbow_flex_l	pro_sup_l	wrist_flex_l	wrist_dev_l
      2.01923077	      1.54847991	     -0.02797289	    117.38393092	      0.31977735	      0.49943545	      0.99342441	      7.49293933	     -5.62068508	    -13.47305727	     14.70068019	      0.25657527	     32.46787170	     12.72414071	      0.00000000	      6.32351664	      3.86909927	     -3.22870629	      8.99222477	      0.15694393	     24.52926137	     10.64564035	      0.00000000	      0.05296302	     -0.60974206	     -0.97349767	      0.09835762	     -0.81095694	     -1.03434128	      0.08701295	     -1.48252684	     -1.03434128	      0.06053144	     -1.48252684	     -0.85181046	      0.04918146	     -1.24338600	     -0.79096686	      0.03026307	     -0.94449045	     -0.73012326	      0.37830955	     -6.89752409	     -5.41430201	      0.00000000	      0.00000000	     18.42195409	      4.22386935	     -8.28643389	     -9.95795469	    -17.53329623	    -29.24226612	     87.55762115	     88.16002161	     -3.23413220	     21.32263200	      4.80180491	    -14.24727922	    160.95811919	      1.45165729	     30.80540727	    -22.37069572	     -0.47457395
      2.03846154	      1.46425006	     -0.08103459	    117.45268080	      0.31903847	      0.49983987	      0.99213457	      7.39446009	     -5.74205244	    -13.69073276	     14.79096950	      0.25815112	     32.36795267	     12.88403626	      0.00000000	      6.17863209	      4.00222651	     -2.95780435	      8.86979364	      0.15480710	     24.34649272	     10.33239657	      0.00000000	      0.06977298	     -0.62886772	     -0.99701617	      0.12957541	     -0.83639407	     -1.05932968	      0.11463003	     -1.52902898	     -1.05932968	      0.07974354	     -1.52902898	     -0.87238915	      0.06479119	     -1.28238706	     -0.81007564	      0.03986828	     -0.97411610	     -0.74776213	      0.49838144	     -7.11387747	     -5.54510483	      0.00000000	      0.00000000	     18.31038636	      4.36570819	     -8.59506725	     -9.45710013	    -18.05053455	    -28.74115422	     88.72541011	     88.12487210	     -3.02743273	     19.15955593	      4.47973459	    -14.44591730	    159.92424639	      1.54332525	     27.01178615	    -21.97027747	     -2.05865909
      2.05769231	      1.34681556	     -0.19563330	    117.48772387	      0.31849915	      0.50020530	      0.99097659	      7.40314041	     -5.91780622	    -13.77005039	     14.97597023	      0.26137999	     32.28290021	     12.89739513	      0.00000000	      6.11744563	      4.16838820	     -2.89190784	      8.78783448	      0.15337665	     24.21793605	     10.31487614	      0.00000000	      0.08837457	     -0.65547760	     -0.95879715	      0.16412041	     -0.87178520	     -1.01872197	      0.14519058	     -1.59372823	     -1.01872197	      0.10100330	     -1.59372823	     -0.83894750	      0.08206463	     -1.33664991	     -0.77902268	      0.05049723	     -1.01533480	     -0.71909786	      0.63125071	     -7.41489366	     -5.33254208	      0.00000000	      0.00000000	     18.28843356	      4.45782876	     -9.11218706	     -9.18559836	    -18.36164879	    -28.72554015	     89.73401956	     87.84255031	     -2.67676376	     17.08060094	      4.38201930	    -14.64266712	    158.92638949	      1.67397049	     23.96791151	    -21.27434486	     -3.34335590
      2.07692308	      1.16457063	     -0.23110636	    117.45542427	      0.31832116	      0.50074558	      0.98978527	      7.27420832	     -6.05349651	    -13.60313210	     15.00221721	      0.26183809	     32.14667913	     12.69215217	      0.00000000	      6.03345647	      4.30637428	     -3.30785635	      8.85622808	      0.15457034	     24.21999693	     10.75402933	      0.00000000	      0.09670169	     -0.68558843	     -0.89977783	      0.17958470	     -0.91183261	     -0.95601394	      0.15887120	     -1.66693970	     -0.95601394	      0.11052036	     -1.66693970	     -0.78730560	      0.08979718	     -1.39805192	     -0.73106949	      0.05525534	     -1.06197648	     -0.67483337	      0.69073047	     -7.75551342	     -5.00429435	      0.00000000	      0.00000000	     18.11339519	      4.57282701	     -9.50627304	     -9.09939668	    -18.53167714	    -28.94781647	     91.04363889	     87.19096147	     -2.29794223	     16.00344304	      4.34053029	    -14.98108548	    161.09701762	      1.74127771	     15.29125828	    -19.61151863	     -5.54765873
      2.09615385	      0.96999536	     -0.27031332	    117.38026472	      0.31811679	      0.50129506	      0.98874480	      7.20083595	     -6.22384753	    -13.40844555	     15.05212639	      0.26270916	     32.20686200	     12.55122138	      0.00000000	      5.93822348	      4.48038793	     -3.56970786	      8.88234808	      0.15502622	     24.23586781	     10.94079301	      0.00000000	      0.10746359	     -0.71936595	     -0.74818600	      0.19957063	     -0.95675672	     -0.79494762	      0.17655193	     -1.74906637	     -0.79494762	      0.12282013	     -1.74906637	     -0.65466275	      0.09979069	     -1.46693105	     -0.60790112	      0.06140469	     -1.11429786	     -0.56113950	      0.76760166	     -8.13761152	     -4.16118606	      0.00000000	      0.00000000	     17.78186615	      4.61259775	    -10.46234532	     -9.69800728	    -18.45545003	    -30.04236057	     92.91292954	     85.27036197	     -1.60231993	     14.89534912	      4.63778610	    -15.15781312	    160.58287478	      1.85729875	     14.58887640	    -18.65937535	     -6.06750902
      2.11538462	      0.81891396	     -0.26285603	    117.19266712	      0.31819325	      0.50186039	      0.98795415	      7.12685002	     -6.29314117	    -12.99356739	     14.96319530	      0.26115702	     32.28624784	     12.31185737	      0.00000000	      5.81037494	      4.56937624	     -4.04022132	      8.83410125	      0.15418415	     24.30474281	     11.34373109	      0.00000000	      0.11210536	     -0.74390377	     -0.56475937	      0.20819087	     -0.98939201	     -0.60005683	      0.18417790	     -1.80872762	     -0.60005683	      0.12812522	     -1.80872762	     -0.49416445	      0.10410104	     -1.51696856	     -0.45886699	      0.06405700	     -1.15230694	     -0.42356953	      0.80075738	     -8.41518820	     -3.14102218	      0.00000000	      0.00000000	     17.38465317	      4.56741496	    -11.35398259	    -10.46004392	    -18.39596729	    -31.34358381	     95.26069490	     81.43454847	     -0.73737665	     14.02502131	      5.08655940	    -15.29217193	    160.79753789	      1.93450837	     14.57870735	    -18.05983133	     -6.44796628
      2.13461538	      0.66083854	     -0.15397428	    116.81174969	      0.31848407	      0.50246120	      0.98735265	      7.03864705	     -6.28206269	    -12.12946491	     14.87144134	      0.25955562	     32.43812861	     11.75803425	      0.00000000	      5.63136397	      4.57712231	     -5.22119243	      8.88040187	      0.15499225	     24.46629214	     12.25114167	      0.00000000	      0.10328643	     -0.76017291	     -0.39202731	      0.19181323	     -1.01102997	     -0.41652902	      0.16968928	     -1.84828441	     -0.41652902	      0.11804606	     -1.84828441	     -0.34302389	      0.09591178	     -1.55014459	     -0.31852219	      0.05901787	     -1.17750783	     -0.29402048	      0.73776465	     -8.59922797	     -2.18033828	      0.00000000	      0.00000000	     16.85715472	      4.26777792	    -12.17660590	    -10.99435888	    -18.82758590	    -32.11802743	     97.65665937	     73.30084657	      0.52975698	     13.14294093	      5.53355552	    -15.25763379	    163.29710029	      1.73696368	     16.54109464	    -18.52852248	     -5.28691052
      2.15384615	      0.52885816	     -0.07022302	    116.41212016	      0.31884415	      0.50295523	      0.98688748	      6.93611718	     -6.28533567	    -11.59093339	     14.63718920	      0.25546714	     32.61734236	     11.69266551	      0.00000000	      5.46091734	      4.61057509	     -5.92667147	      8.87028597	      0.15481570	     24.50878586	     12.51786785	      0.00000000	      0.09860057	     -0.77111845	     -0.22219839	      0.18311111	     -1.02558754	     -0.23608579	      0.16199087	     -1.87489740	     -0.23608579	      0.11269059	     -1.87489740	     -0.19442359	      0.09156049	     -1.57246474	     -0.18053619	      0.05634036	     -1.19446248	     -0.16664879	      0.70429398	     -8.72304612	     -1.23580079	      0.00000000	      0.00000000	     16.47433010	      4.12998887	    -12.71560775	    -11.34198356	    -19.35147691	    -32.77621581	    100.29519712	     68.57256679	      0.86100839	     10.52724741	      6.02045192	    -15.16483971	    166.12910298	      1.56855555	     19.25482027	    -19.30651929	     -4.04000766
      2.17307692	      0.51112330	      0.08653901	    116.11792011	      0.31896513	      0.50326895	      0.98667358	      6.70176041	     -6.16597368	    -11.31342298	     14.20310084	      0.24789087	     32.74654134	     11.84156512	      0.00000000	      5.29469749	      4.54402500	     -6.26188961	      8.90381964	      0.15540097	     24.57006711	     12.38521438	      0.00000000	      0.09112010	     -0.75402805	     -0.12507164	      0.16921914	     -1.00285731	     -0.13288862	      0.14970121	     -1.83334380	     -0.13288862	      0.10414116	     -1.83334380	     -0.10943768	      0.08461412	     -1.53761400	     -0.10162071	      0.05206602	     -1.16798945	     -0.09380373	      0.65086176	     -8.52971610	     -0.69561093	      0.00000000	      0.00000000	     16.37304735	      4.22228129	    -12.24175644	    -11.06334955	    -20.01982119	    -33.49866223	    103.18261270	     67.85544677	      1.22081219	      8.03989592	      6.30202056	    -15.02696159	    167.23116755	      1.48982275	     20.31586718	    -19.88134844	     -4.03524520
